<?xml version="1.0" encoding="utf-8"?>
<!-- Generator: Adobe Illustrator 15.1.0, SVG Export Plug-In . SVG Version: 6.00 Build 0)  -->
<!DOCTYPE svg PUBLIC "-//W3C//DTD SVG 1.1//EN" "http://www.w3.org/Graphics/SVG/1.1/DTD/svg11.dtd">
<svg version="1.1" id="Layer_1" xmlns="http://www.w3.org/2000/svg" xmlns:xlink="http://www.w3.org/1999/xlink" x="0px" y="0px"
	 width="20px" height="20px" viewBox="0 0 20 20" enable-background="new 0 0 20 20" xml:space="preserve">
<path fill-rule="evenodd" clip-rule="evenodd" fill="#FFFFFF" d="M2.567,0h14.866C18.845,0,20,1.155,20,2.567v14.866
	C20,18.845,18.845,20,17.433,20H2.567C1.155,20,0,18.845,0,17.433V2.567C0,1.155,1.155,0,2.567,0L2.567,0z M14.569,2.222
	c-0.496,0-0.9,0.405-0.9,0.9v2.155c0,0.495,0.405,0.9,0.9,0.9h2.26c0.496,0,0.9-0.405,0.9-0.9V3.123c0-0.496-0.405-0.9-0.9-0.9
	H14.569L14.569,2.222z M17.74,8.458h-1.761c0.167,0.544,0.257,1.12,0.257,1.716c0,3.327-2.784,6.023-6.217,6.023
	S3.803,13.5,3.803,10.174c0-0.596,0.09-1.172,0.256-1.716H2.222v8.448c0,0.437,0.358,0.795,0.795,0.795h13.927
	c0.438,0,0.795-0.358,0.795-0.795V8.458L17.74,8.458z M10.019,6.064c-2.218,0-4.017,1.743-4.017,3.892s1.798,3.892,4.017,3.892
	s4.017-1.743,4.017-3.892S12.237,6.064,10.019,6.064z"/>
</svg>
