<?xml version="1.0" encoding="utf-8"?>
<!-- Generator: Adobe Illustrator 15.1.0, SVG Export Plug-In . SVG Version: 6.00 Build 0)  -->
<!DOCTYPE svg PUBLIC "-//W3C//DTD SVG 1.1//EN" "http://www.w3.org/Graphics/SVG/1.1/DTD/svg11.dtd">
<svg version="1.1" id="Layer_1" xmlns="http://www.w3.org/2000/svg" xmlns:xlink="http://www.w3.org/1999/xlink" x="0px" y="0px"
	 width="16.375px" height="20px" viewBox="0 0 16.375 20" enable-background="new 0 0 16.375 20" xml:space="preserve">
<circle display="none" fill-rule="evenodd" clip-rule="evenodd" fill="#C9252C" cx="45.341" cy="40.603" r="58.675"/>
<path fill-rule="evenodd" clip-rule="evenodd" fill="#FFFFFF" d="M4.783,19.839c0.642-0.992,0.938-1.573,1.202-2.426
	c0.298-1.177,0.595-2.355,0.893-3.532c0.027,0.014,0.054,0.027,0.082,0.041c0.723,1.958,4.435,1.591,5.968,0.649
	c4.274-2.623,4.792-10.432,0.325-13.236C7.981-1.974,1.405,1.329,0.179,6.207c-0.524,2.084,0.17,4.319,1.218,5.359
	c0.273,0.271,0.904,0.887,1.38,0.771c0.316-0.107,0.746-1.189,0.609-1.665c-0.176-0.23-0.352-0.46-0.528-0.69
	C2.467,9.356,2.202,8.16,2.412,7.101c0.52-2.615,3.135-5.588,6.539-5.038c1.236,0.2,1.813,0.347,2.637,0.896
	c2.663,1.775,2.24,6.57,0.446,8.973c-0.504,0.676-1.428,1.683-2.842,1.38C6.423,12.72,8.241,9.261,8.665,7.425
	C8.96,6.144,8.483,5.043,7.446,4.827C5.785,4.481,4.51,6.624,4.767,8.237c0.085,0.537,0.438,1.29,0.406,1.706
	c-0.149,0.568-0.298,1.137-0.447,1.705c-0.64,2.515-1.346,4.625-1.343,7.683l0,0.001c-0.215,0.533,1.129,0.893,1.396,0.508
	L4.783,19.839z"/>
</svg>
