<?xml version="1.0" encoding="utf-8"?>
<!-- Generator: Adobe Illustrator 15.1.0, SVG Export Plug-In . SVG Version: 6.00 Build 0)  -->
<!DOCTYPE svg PUBLIC "-//W3C//DTD SVG 1.1//EN" "http://www.w3.org/Graphics/SVG/1.1/DTD/svg11.dtd">
<svg version="1.1" id="Layer_2" xmlns="http://www.w3.org/2000/svg" xmlns:xlink="http://www.w3.org/1999/xlink" x="0px" y="0px"
	 width="20px" height="13.854px" viewBox="0 0 20 13.854" enable-background="new 0 0 20 13.854" xml:space="preserve">
<path fill="#FFFFFF" d="M17.65,7.327c-0.635,2.318-2.085,3.978-3.921,5.02C9.42,14.792,3.146,14.438,0,9.992
	c2.064,1.62,5.123,1.977,7.394-0.281c-1.487,0-1.873-1.114-0.693-1.716C5.583,7.983,4.873,7.63,4.456,6.99
	C4.298,6.747,4.297,6.729,4.555,6.542c0.283-0.205,0.67-0.296,1.07-0.327C4.469,5.884,3.762,5.28,3.517,4.47
	C3.436,4.202,3.423,4.215,3.695,4.146c0.267-0.067,0.61-0.104,0.918-0.119C3.705,3.476,3.162,2.801,3.024,2.055
	C2.894,1.351,3.028,1.531,3.556,1.733c2.357,0.902,4.708,1.871,6.101,3.305c0.64-1.997,1.421-3.291,2.321-4.229
	c0.671-0.7,1.018-0.922,0.624-0.151c0.174-0.14,0.424-0.325,0.618-0.424c1.089-0.514,1.012-0.083,0.262,0.378
	c2.047-0.732,1.977,0.2-0.189,0.665c1.771,0.033,3.653,1.16,4.194,3.556c0.075,0.332-0.015,0.3,0.325,0.36
	c0.733,0.13,1.423,0.122,2.096-0.092c-0.072,0.496-0.728,0.818-1.749,1.031c-0.379,0.079-0.456,0.058-0.003,0.16
	C18.714,6.417,19.339,6.45,20,6.419C19.485,7.012,18.665,7.314,17.65,7.327z"/>
</svg>
