<?xml version="1.0" encoding="utf-8"?>
<!-- Generator: Adobe Illustrator 15.1.0, SVG Export Plug-In . SVG Version: 6.00 Build 0)  -->
<!DOCTYPE svg PUBLIC "-//W3C//DTD SVG 1.1//EN" "http://www.w3.org/Graphics/SVG/1.1/DTD/svg11.dtd">
<svg version="1.1" id="Layer_2" xmlns="http://www.w3.org/2000/svg" xmlns:xlink="http://www.w3.org/1999/xlink" x="0px" y="0px"
	 width="187.694px" height="193.097px" viewBox="0 0 187.694 193.097" enable-background="new 0 0 187.694 193.097"
	 xml:space="preserve">
<g>
	<g>
		<path d="M94.728,152.17c-18.015-2.139-36.271,2.373-36.875,19.447c-0.604,17.053,17.292,22.489,35.416,21.33
			c15.726-1.006,34.331-5.885,34.817-19.431C128.58,159.977,110.357,154.032,94.728,152.17z M94.134,40.925
			c15.657-1.915,33.953-7.871,33.646-21.425c-0.301-13.545-18.841-18.418-34.55-19.369C75.119-0.957,57.15,4.614,57.551,21.689
			C57.932,38.752,76.124,43.143,94.134,40.925z M151.131,104.222c-20.819-1.671-39.112,4.396-39.073,24.066
			c0.063,19.684,18.359,25.099,39.166,22.956c18.096-1.844,35.135-4.277,35.707-23.992
			C187.512,107.549,169.215,105.691,151.131,104.222z M152.229,41.745c-20.784-1.999-39.166,3.782-39.433,23.444
			c-0.264,19.695,17.961,25.394,38.798,23.576c18.115-1.564,35.2-3.734,36.07-23.441C188.543,45.626,170.29,43.492,152.229,41.745z
			 M108.967,97.484c-1.129-17.061-9.464-39.495-42.11-44.768C34.23,47.45,32.795,26.841,11.686,37.583
			c-25.77,12.709-1.263,35.555,1.36,63.263c2.635,27.717-27.451,48.479,1.74,59.047c21.893,6.327,28.403-17.342,55.451-19.307
			C89.482,138.869,110.149,115.561,108.967,97.484z"/>
	</g>
</g>
</svg>
