<?xml version="1.0" encoding="utf-8"?>
<!-- Generator: Adobe Illustrator 15.1.0, SVG Export Plug-In . SVG Version: 6.00 Build 0)  -->
<!DOCTYPE svg PUBLIC "-//W3C//DTD SVG 1.1//EN" "http://www.w3.org/Graphics/SVG/1.1/DTD/svg11.dtd">
<svg version="1.1" id="Layer_2" xmlns="http://www.w3.org/2000/svg" xmlns:xlink="http://www.w3.org/1999/xlink" x="0px" y="0px"
	 width="193.097px" height="187.694px" viewBox="0 0 193.097 187.694" enable-background="new 0 0 193.097 187.694"
	 xml:space="preserve">
<g opacity="0.4">
	<g>
		<path fill="#C91783" d="M192.947,94.426c-1.006-15.726-5.885-34.331-19.431-34.817c-13.54-0.494-19.484,17.729-21.347,33.358
			c-2.139,18.015,2.373,36.271,19.447,36.875C188.67,130.445,194.106,112.55,192.947,94.426z M40.925,93.561
			C39.01,77.903,33.054,59.607,19.5,59.915C5.955,60.216,1.082,78.756,0.131,94.465c-1.088,18.11,4.483,36.079,21.559,35.679
			C38.752,129.763,43.143,111.57,40.925,93.561z M128.288,75.637c19.684-0.063,25.099-18.359,22.956-39.166
			c-1.844-18.096-4.277-35.135-23.992-35.707c-19.703-0.581-21.561,17.716-23.03,35.8C102.551,57.383,108.617,75.676,128.288,75.637
			z M65.189,74.898c19.695,0.264,25.394-17.961,23.576-38.798C87.201,17.985,85.031,0.9,65.324,0.03
			C45.626-0.849,43.492,17.404,41.745,35.466C39.746,56.25,45.527,74.632,65.189,74.898z M97.484,78.728
			c-17.061,1.129-39.495,9.464-44.768,42.11c-5.267,32.626-25.876,34.062-15.134,55.171c12.709,25.77,35.555,1.263,63.263-1.36
			c27.717-2.635,48.479,27.451,59.047-1.74c6.327-21.893-17.342-28.403-19.307-55.451C138.869,98.212,115.561,77.545,97.484,78.728z
			"/>
	</g>
</g>
</svg>
