<?xml version="1.0" encoding="utf-8"?>
<!-- Generator: Adobe Illustrator 15.1.0, SVG Export Plug-In . SVG Version: 6.00 Build 0)  -->
<!DOCTYPE svg PUBLIC "-//W3C//DTD SVG 1.1//EN" "http://www.w3.org/Graphics/SVG/1.1/DTD/svg11.dtd">
<svg version="1.1" id="Layer_2" xmlns="http://www.w3.org/2000/svg" xmlns:xlink="http://www.w3.org/1999/xlink" x="0px" y="0px"
	 width="515.5px" height="315.504px" viewBox="0 0 515.5 315.504" enable-background="new 0 0 515.5 315.504" xml:space="preserve">
<g opacity="0.4">
	<g>
		<path fill="#DAE5E5" d="M207.484,163.459c17.498,4.785,36.222,3.029,39.351-13.766c3.125-16.776-13.768-24.805-31.863-26.344
			c-15.702-1.337-34.825,0.73-37.313,14.055C175.162,150.721,192.303,159.3,207.484,163.459z M191.58,273.563
			c-15.768-0.427-34.744,2.751-36.449,16.201c-1.709,13.439,15.903,21.007,31.297,24.275c17.75,3.761,36.345,0.915,38.481-16.03
			C227.061,281.079,209.721,274.039,191.58,273.563z M144.596,202.516c20.343,4.739,39.333,1.452,42.209-18.008
			c2.855-19.476-14.436-27.543-35.331-28.508c-18.169-0.859-35.38-0.979-38.868,18.435
			C109.111,193.833,126.931,198.383,144.596,202.516z M176.721,246.799c3.181-19.438-13.999-27.775-34.873-29.067
			c-18.147-1.137-35.365-1.523-39.147,17.836c-3.789,19.351,13.946,24.167,31.549,28.571
			C154.508,269.198,173.544,266.206,176.721,246.799z M280.655,226.324c1.504-27.801,34.335-43.873,7.033-58.653
			c-20.714-9.502-30.661,12.94-57.701,10.874c-19.287-1.155-43.182,18.833-44.691,36.884c-1.412,17.039,3.506,40.462,35.01,50.515
			c31.485,10.045,29.85,30.64,52.317,23.146C299.992,280.34,279.142,254.115,280.655,226.324z"/>
	</g>
</g>
<g opacity="0.4">
	<g>
		<path fill="#DAE5E5" d="M424.484,40.459c17.498,4.785,36.222,3.029,39.351-13.766c3.125-16.776-13.768-24.805-31.863-26.344
			c-15.701-1.337-34.824,0.73-37.312,14.055C392.163,27.721,409.303,36.3,424.484,40.459z M408.581,150.563
			c-15.768-0.427-34.744,2.751-36.449,16.201c-1.71,13.439,15.902,21.007,31.297,24.275c17.749,3.761,36.345,0.915,38.48-16.03
			C444.061,158.079,426.721,151.039,408.581,150.563z M361.596,79.516c20.342,4.739,39.332,1.452,42.209-18.008
			c2.855-19.476-14.436-27.543-35.33-28.508c-18.17-0.859-35.381-0.979-38.869,18.435C326.111,70.833,343.93,75.383,361.596,79.516z
			 M393.721,123.799c3.181-19.438-13.998-27.775-34.873-29.067c-18.147-1.137-35.365-1.523-39.147,17.836
			c-3.789,19.351,13.946,24.167,31.549,28.571C371.508,146.198,390.543,143.206,393.721,123.799z M497.655,103.324
			c1.504-27.801,34.335-43.873,7.033-58.653c-20.714-9.502-30.661,12.94-57.701,10.874c-19.287-1.155-43.182,18.833-44.691,36.884
			c-1.412,17.039,3.506,40.462,35.01,50.515c31.485,10.045,29.85,30.64,52.317,23.146
			C516.992,157.34,496.142,131.115,497.655,103.324z"/>
	</g>
</g>
</svg>
