<?xml version="1.0" encoding="utf-8"?>
<!-- Generator: Adobe Illustrator 15.1.0, SVG Export Plug-In . SVG Version: 6.00 Build 0)  -->
<!DOCTYPE svg PUBLIC "-//W3C//DTD SVG 1.1//EN" "http://www.w3.org/Graphics/SVG/1.1/DTD/svg11.dtd">
<svg version="1.1" id="Layer_2" xmlns="http://www.w3.org/2000/svg" xmlns:xlink="http://www.w3.org/1999/xlink" x="0px" y="0px"
	 width="196.314px" height="192.503px" viewBox="319.186 0 196.314 192.503" enable-background="new 319.186 0 196.314 192.503"
	 xml:space="preserve">
<g opacity="0.4">
	<g>
		<path fill="#DAE5E5" d="M424.484,40.459c17.498,4.785,36.222,3.029,39.351-13.766c3.125-16.776-13.768-24.805-31.863-26.344
			c-15.7-1.337-34.823,0.73-37.312,14.055C392.163,27.721,409.303,36.3,424.484,40.459z M408.581,150.563
			c-15.769-0.427-34.744,2.751-36.449,16.201c-1.71,13.439,15.902,21.008,31.297,24.275c17.749,3.761,36.346,0.915,38.48-16.03
			C444.061,158.079,426.721,151.039,408.581,150.563z M361.596,79.516c20.343,4.739,39.332,1.452,42.209-18.008
			c2.855-19.476-14.436-27.543-35.33-28.508c-18.17-0.859-35.381-0.979-38.868,18.435C326.111,70.833,343.93,75.383,361.596,79.516z
			 M393.721,123.799c3.182-19.438-13.998-27.775-34.873-29.067c-18.146-1.137-35.364-1.523-39.146,17.836
			c-3.789,19.351,13.946,24.167,31.549,28.571C371.508,146.198,390.543,143.206,393.721,123.799z M497.655,103.324
			c1.504-27.801,34.335-43.873,7.032-58.653c-20.714-9.502-30.66,12.94-57.7,10.874c-19.287-1.155-43.183,18.833-44.691,36.884
			c-1.412,17.039,3.506,40.462,35.01,50.515c31.485,10.045,29.851,30.64,52.317,23.146
			C516.992,157.34,496.142,131.115,497.655,103.324z"/>
	</g>
</g>
</svg>
